<mxfile host="app.diagrams.net" agent="Mozilla/5.0 (X11; Ubuntu; Linux x86_64; rv:136.0) Gecko/20100101 Firefox/136.0" version="26.1.1">
  <diagram id="C5RBs43oDa-KdzZeNtuy" name="Page-1">
    <mxGraphModel dx="1356" dy="624" grid="1" gridSize="10" guides="1" tooltips="1" connect="1" arrows="1" fold="1" page="1" pageScale="1" pageWidth="827" pageHeight="1169" math="0" shadow="0">
      <root>
        <mxCell id="WIyWlLk6GJQsqaUBKTNV-0" />
        <mxCell id="WIyWlLk6GJQsqaUBKTNV-1" parent="WIyWlLk6GJQsqaUBKTNV-0" />
        <mxCell id="lv9YnxyCzNiJ2VLWQXhp-0" value="Offline Mode Functionality" style="shape=umlFrame;whiteSpace=wrap;html=1;pointerEvents=0;recursiveResize=0;container=1;collapsible=0;width=160;" parent="WIyWlLk6GJQsqaUBKTNV-1" vertex="1">
          <mxGeometry x="230" y="150" width="580" height="490" as="geometry" />
        </mxCell>
        <mxCell id="lv9YnxyCzNiJ2VLWQXhp-1" value="Download Content for Offline Use" style="ellipse;whiteSpace=wrap;html=1;" parent="lv9YnxyCzNiJ2VLWQXhp-0" vertex="1">
          <mxGeometry x="76" y="40" width="120" height="80" as="geometry" />
        </mxCell>
        <mxCell id="lv9YnxyCzNiJ2VLWQXhp-2" value="View Storage Requirements" style="ellipse;whiteSpace=wrap;html=1;" parent="lv9YnxyCzNiJ2VLWQXhp-0" vertex="1">
          <mxGeometry x="220" y="20" width="100" height="60" as="geometry" />
        </mxCell>
        <mxCell id="lv9YnxyCzNiJ2VLWQXhp-3" value="Select Content Categories" style="ellipse;whiteSpace=wrap;html=1;" parent="lv9YnxyCzNiJ2VLWQXhp-0" vertex="1">
          <mxGeometry x="220" y="90" width="100" height="60" as="geometry" />
        </mxCell>
        <mxCell id="lv9YnxyCzNiJ2VLWQXhp-4" value="Navigate Museum in Offline Mode" style="ellipse;whiteSpace=wrap;html=1;" parent="lv9YnxyCzNiJ2VLWQXhp-0" vertex="1">
          <mxGeometry x="76" y="170" width="120" height="80" as="geometry" />
        </mxCell>
        <mxCell id="lv9YnxyCzNiJ2VLWQXhp-5" value="View Offline Map" style="ellipse;whiteSpace=wrap;html=1;" parent="lv9YnxyCzNiJ2VLWQXhp-0" vertex="1">
          <mxGeometry x="240" y="180" width="100" height="60" as="geometry" />
        </mxCell>
        <mxCell id="lv9YnxyCzNiJ2VLWQXhp-6" value="Access Online-only Feature" style="ellipse;whiteSpace=wrap;html=1;" parent="lv9YnxyCzNiJ2VLWQXhp-0" vertex="1">
          <mxGeometry x="60" y="260" width="120" height="80" as="geometry" />
        </mxCell>
        <mxCell id="lv9YnxyCzNiJ2VLWQXhp-7" value="View Feature Unavailable Message" style="ellipse;whiteSpace=wrap;html=1;" parent="lv9YnxyCzNiJ2VLWQXhp-0" vertex="1">
          <mxGeometry x="220" y="260" width="120" height="60" as="geometry" />
        </mxCell>
        <mxCell id="lv9YnxyCzNiJ2VLWQXhp-8" value="Synchronize Data When Online" style="ellipse;whiteSpace=wrap;html=1;" parent="lv9YnxyCzNiJ2VLWQXhp-0" vertex="1">
          <mxGeometry x="340" y="120" width="120" height="80" as="geometry" />
        </mxCell>
        <mxCell id="lv9YnxyCzNiJ2VLWQXhp-10" value="Manage Offline Content Storage" style="ellipse;whiteSpace=wrap;html=1;" parent="lv9YnxyCzNiJ2VLWQXhp-0" vertex="1">
          <mxGeometry x="60" y="370" width="120" height="80" as="geometry" />
        </mxCell>
        <mxCell id="lv9YnxyCzNiJ2VLWQXhp-11" value="Delete Specific Content" style="ellipse;whiteSpace=wrap;html=1;" parent="lv9YnxyCzNiJ2VLWQXhp-0" vertex="1">
          <mxGeometry x="250" y="340" width="100" height="60" as="geometry" />
        </mxCell>
        <mxCell id="lv9YnxyCzNiJ2VLWQXhp-12" value="Update Outdated Content" style="ellipse;whiteSpace=wrap;html=1;" parent="lv9YnxyCzNiJ2VLWQXhp-0" vertex="1">
          <mxGeometry x="250" y="410" width="100" height="60" as="geometry" />
        </mxCell>
        <mxCell id="lv9YnxyCzNiJ2VLWQXhp-13" value="Display Limited Functionality" style="ellipse;whiteSpace=wrap;html=1;" parent="lv9YnxyCzNiJ2VLWQXhp-0" vertex="1">
          <mxGeometry x="350" y="240" width="120" height="80" as="geometry" />
        </mxCell>
        <mxCell id="lv9YnxyCzNiJ2VLWQXhp-14" value="User" style="shape=umlActor;verticalLabelPosition=bottom;verticalAlign=top;html=1;" parent="WIyWlLk6GJQsqaUBKTNV-1" vertex="1">
          <mxGeometry x="130" y="300" width="30" height="60" as="geometry" />
        </mxCell>
        <mxCell id="lv9YnxyCzNiJ2VLWQXhp-15" value="System" style="shape=umlActor;verticalLabelPosition=bottom;verticalAlign=top;html=1;" parent="WIyWlLk6GJQsqaUBKTNV-1" vertex="1">
          <mxGeometry x="846" y="300" width="30" height="60" as="geometry" />
        </mxCell>
        <mxCell id="lv9YnxyCzNiJ2VLWQXhp-16" value="" style="endArrow=open;endFill=1;endSize=12;html=1;rounded=0;exitX=1;exitY=0.3333333333333333;exitDx=0;exitDy=0;exitPerimeter=0;entryX=0;entryY=0.5;entryDx=0;entryDy=0;" parent="WIyWlLk6GJQsqaUBKTNV-1" source="lv9YnxyCzNiJ2VLWQXhp-14" target="lv9YnxyCzNiJ2VLWQXhp-1" edge="1">
          <mxGeometry width="160" relative="1" as="geometry">
            <mxPoint x="436" y="300" as="sourcePoint" />
            <mxPoint x="596" y="300" as="targetPoint" />
          </mxGeometry>
        </mxCell>
        <mxCell id="lv9YnxyCzNiJ2VLWQXhp-17" value="" style="endArrow=open;endFill=1;endSize=12;html=1;rounded=0;exitX=1;exitY=0.3333333333333333;exitDx=0;exitDy=0;exitPerimeter=0;entryX=0;entryY=0.5;entryDx=0;entryDy=0;" parent="WIyWlLk6GJQsqaUBKTNV-1" source="lv9YnxyCzNiJ2VLWQXhp-14" target="lv9YnxyCzNiJ2VLWQXhp-4" edge="1">
          <mxGeometry width="160" relative="1" as="geometry">
            <mxPoint x="210" y="330" as="sourcePoint" />
            <mxPoint x="316" y="230" as="targetPoint" />
          </mxGeometry>
        </mxCell>
        <mxCell id="lv9YnxyCzNiJ2VLWQXhp-18" value="" style="endArrow=open;endFill=1;endSize=12;html=1;rounded=0;exitX=1;exitY=0.3333333333333333;exitDx=0;exitDy=0;exitPerimeter=0;entryX=0;entryY=0.5;entryDx=0;entryDy=0;" parent="WIyWlLk6GJQsqaUBKTNV-1" source="lv9YnxyCzNiJ2VLWQXhp-14" target="lv9YnxyCzNiJ2VLWQXhp-6" edge="1">
          <mxGeometry width="160" relative="1" as="geometry">
            <mxPoint x="220" y="340" as="sourcePoint" />
            <mxPoint x="326" y="340" as="targetPoint" />
          </mxGeometry>
        </mxCell>
        <mxCell id="lv9YnxyCzNiJ2VLWQXhp-19" value="" style="endArrow=open;endFill=1;endSize=12;html=1;rounded=0;exitX=1;exitY=0.3333333333333333;exitDx=0;exitDy=0;exitPerimeter=0;entryX=0;entryY=0.5;entryDx=0;entryDy=0;" parent="WIyWlLk6GJQsqaUBKTNV-1" source="lv9YnxyCzNiJ2VLWQXhp-14" target="lv9YnxyCzNiJ2VLWQXhp-10" edge="1">
          <mxGeometry width="160" relative="1" as="geometry">
            <mxPoint x="230" y="350" as="sourcePoint" />
            <mxPoint x="336" y="450" as="targetPoint" />
          </mxGeometry>
        </mxCell>
        <mxCell id="lv9YnxyCzNiJ2VLWQXhp-20" value="&lt;&lt;include&gt;&gt;" style="endArrow=open;endSize=12;dashed=1;html=1;rounded=0;exitX=1;exitY=0.5;exitDx=0;entryX=0;entryY=0.5;entryDx=0;" parent="WIyWlLk6GJQsqaUBKTNV-1" source="lv9YnxyCzNiJ2VLWQXhp-1" target="lv9YnxyCzNiJ2VLWQXhp-2" edge="1">
          <mxGeometry width="160" relative="1" as="geometry">
            <mxPoint x="436" y="300" as="sourcePoint" />
            <mxPoint x="596" y="300" as="targetPoint" />
          </mxGeometry>
        </mxCell>
        <mxCell id="lv9YnxyCzNiJ2VLWQXhp-21" value="&lt;&lt;include&gt;&gt;" style="endArrow=open;endSize=12;dashed=1;html=1;rounded=0;exitX=1;exitY=0.5;exitDx=0;entryX=0;entryY=0.5;entryDx=0;" parent="WIyWlLk6GJQsqaUBKTNV-1" source="lv9YnxyCzNiJ2VLWQXhp-1" target="lv9YnxyCzNiJ2VLWQXhp-3" edge="1">
          <mxGeometry width="160" relative="1" as="geometry">
            <mxPoint x="436" y="210" as="sourcePoint" />
            <mxPoint x="460" y="210" as="targetPoint" />
          </mxGeometry>
        </mxCell>
        <mxCell id="lv9YnxyCzNiJ2VLWQXhp-22" value="&lt;&lt;include&gt;&gt;" style="endArrow=open;endSize=12;dashed=1;html=1;rounded=0;exitX=1;exitY=0.5;exitDx=0;entryX=0;entryY=0.5;entryDx=0;" parent="WIyWlLk6GJQsqaUBKTNV-1" source="lv9YnxyCzNiJ2VLWQXhp-4" target="lv9YnxyCzNiJ2VLWQXhp-5" edge="1">
          <mxGeometry width="160" relative="1" as="geometry">
            <mxPoint x="436" y="230" as="sourcePoint" />
            <mxPoint x="460" y="260" as="targetPoint" />
          </mxGeometry>
        </mxCell>
        <mxCell id="lv9YnxyCzNiJ2VLWQXhp-23" value="&lt;&lt;include&gt;&gt;" style="endArrow=open;endSize=12;dashed=1;html=1;rounded=0;exitX=1;exitY=0.5;exitDx=0;entryX=0;entryY=0.5;entryDx=0;" parent="WIyWlLk6GJQsqaUBKTNV-1" source="lv9YnxyCzNiJ2VLWQXhp-6" target="lv9YnxyCzNiJ2VLWQXhp-7" edge="1">
          <mxGeometry width="160" relative="1" as="geometry">
            <mxPoint x="436" y="310" as="sourcePoint" />
            <mxPoint x="460" y="340" as="targetPoint" />
          </mxGeometry>
        </mxCell>
        <mxCell id="lv9YnxyCzNiJ2VLWQXhp-24" value="&lt;&lt;include&gt;&gt;" style="endArrow=open;endSize=12;dashed=1;html=1;rounded=0;exitX=1;exitY=0.5;exitDx=0;entryX=0;entryY=0.5;entryDx=0;" parent="WIyWlLk6GJQsqaUBKTNV-1" source="lv9YnxyCzNiJ2VLWQXhp-10" target="lv9YnxyCzNiJ2VLWQXhp-11" edge="1">
          <mxGeometry width="160" relative="1" as="geometry">
            <mxPoint x="436" y="390" as="sourcePoint" />
            <mxPoint x="460" y="420" as="targetPoint" />
          </mxGeometry>
        </mxCell>
        <mxCell id="lv9YnxyCzNiJ2VLWQXhp-25" value="&lt;&lt;include&gt;&gt;" style="endArrow=open;endSize=12;dashed=1;html=1;rounded=0;exitX=1;exitY=0.5;exitDx=0;entryX=0;entryY=0.5;entryDx=0;" parent="WIyWlLk6GJQsqaUBKTNV-1" source="lv9YnxyCzNiJ2VLWQXhp-10" target="lv9YnxyCzNiJ2VLWQXhp-12" edge="1">
          <mxGeometry width="160" relative="1" as="geometry">
            <mxPoint x="436" y="490" as="sourcePoint" />
            <mxPoint x="460" y="520" as="targetPoint" />
          </mxGeometry>
        </mxCell>
        <mxCell id="lv9YnxyCzNiJ2VLWQXhp-27" value="" style="endArrow=open;endFill=1;endSize=12;html=1;rounded=0;exitX=0;exitY=0.3333333333333333;exitDx=0;exitDy=0;exitPerimeter=0;entryX=1;entryY=0.5;entryDx=0;entryDy=0;" parent="WIyWlLk6GJQsqaUBKTNV-1" source="lv9YnxyCzNiJ2VLWQXhp-15" target="lv9YnxyCzNiJ2VLWQXhp-8" edge="1">
          <mxGeometry width="160" relative="1" as="geometry">
            <mxPoint x="856" y="330" as="sourcePoint" />
            <mxPoint x="710" y="230" as="targetPoint" />
          </mxGeometry>
        </mxCell>
        <mxCell id="lv9YnxyCzNiJ2VLWQXhp-28" value="" style="endArrow=open;endFill=1;endSize=12;html=1;rounded=0;exitX=0;exitY=0.3333333333333333;exitDx=0;exitDy=0;exitPerimeter=0;entryX=1;entryY=0.5;entryDx=0;entryDy=0;" parent="WIyWlLk6GJQsqaUBKTNV-1" source="lv9YnxyCzNiJ2VLWQXhp-15" target="lv9YnxyCzNiJ2VLWQXhp-13" edge="1">
          <mxGeometry width="160" relative="1" as="geometry">
            <mxPoint x="856" y="330" as="sourcePoint" />
            <mxPoint x="710" y="330" as="targetPoint" />
          </mxGeometry>
        </mxCell>
        <mxCell id="lv9YnxyCzNiJ2VLWQXhp-29" value="" style="endArrow=open;endFill=1;endSize=12;html=1;rounded=0;exitX=1;exitY=0.3333333333333333;exitDx=0;exitDy=0;exitPerimeter=0;entryX=0;entryY=0.5;entryDx=0;entryDy=0;" parent="WIyWlLk6GJQsqaUBKTNV-1" source="lv9YnxyCzNiJ2VLWQXhp-14" target="lv9YnxyCzNiJ2VLWQXhp-8" edge="1">
          <mxGeometry width="160" relative="1" as="geometry">
            <mxPoint x="210" y="330" as="sourcePoint" />
            <mxPoint x="596" y="300" as="targetPoint" />
          </mxGeometry>
        </mxCell>
      </root>
    </mxGraphModel>
  </diagram>
</mxfile>
